<svg width="205" height="204" viewBox="0 0 205 204" fill="none" xmlns="http://www.w3.org/2000/svg">
<path d="M29.6634 83.6513L33.8413 94.1839L32.9324 84.5569L42.8509 84.954L43.122 120.603L37.2378 121L31.2261 104.081L31.3537 118.013L23.7793 118.14L22.8703 87.6865L20.1276 87.0351L20 83L29.6634 83.6513Z" fill="white"/>
<path d="M63.0388 89.7676C65.5583 91.6845 66.8181 94.2422 66.8181 97.4406C66.8181 98.5421 66.6586 99.6806 66.3397 100.856C66.0314 102.021 65.5955 103.139 65.0321 104.208C64.4687 105.278 63.8468 106.231 63.1664 107.068C62.0501 108.445 60.9445 109.604 59.8496 110.547C58.7652 111.489 57.6703 112.257 56.5646 112.85C55.459 113.433 54.3907 113.856 53.3595 114.121C52.3283 114.386 51.3183 114.518 50.3297 114.518C48.0334 114.518 45.9551 113.904 44.0947 112.676C42.8403 111.828 41.7985 110.504 40.9693 108.704C40.1507 106.904 39.7414 104.971 39.7414 102.906C39.7414 99.5906 40.7992 96.731 42.9147 94.3269C44.1585 92.9077 45.4661 91.6474 46.8375 90.546C48.2088 89.4445 49.6281 88.5814 51.0951 87.9565C52.5622 87.3211 54.0611 87.0033 55.5919 87.0033C58.1114 87.0033 60.5937 87.9247 63.0388 89.7676ZM59.8974 93.8662C59.6848 95.0524 59.2542 96.0321 58.6058 96.8052C57.9573 97.5783 57.2875 97.9649 56.5965 97.9649C56.1607 97.9649 55.7833 97.8007 55.4644 97.4724C55.2943 97.303 55.1508 97.0488 55.0338 96.7099C54.9275 96.371 54.8744 96.0426 54.8744 95.7249C54.8744 95.0789 55.0657 94.4434 55.4484 93.8186C55.8418 93.1831 56.4637 92.6324 57.3141 92.1664C56.2936 92.1664 55.4218 92.4047 54.6989 92.8813C53.9867 93.3473 53.4605 93.9457 53.1203 94.6764C52.7801 95.4072 52.61 96.1644 52.61 96.9482C52.61 98.1767 52.9714 99.0769 53.6943 99.6488C54.5661 100.348 55.4378 100.697 56.3095 100.697C57.3832 100.697 58.2868 100.221 59.0204 99.2676C59.7539 98.3144 60.1207 97.1335 60.1207 95.7249C60.1207 95.0683 60.0462 94.4487 59.8974 93.8662Z" fill="white"/>
<path d="M80.3404 88.3378C81.6268 87.9142 82.8334 87.5223 83.9602 87.1622C85.0977 86.8021 86.2937 86.4632 87.5481 86.1455C88.8026 85.8172 90.0038 85.5577 91.152 85.3671C92.0343 85.2188 92.9379 85.1446 93.8628 85.1446C95.4043 85.1446 96.4142 85.187 96.8926 85.2717C97.6155 85.4094 98.2959 85.6318 98.9337 85.939C99.5822 86.2461 100.156 86.6591 100.656 87.1781C101.166 87.6865 101.581 88.2901 101.9 88.9891C102.027 89.2751 102.091 89.5769 102.091 89.8946C102.091 91.0808 101.437 92.5424 100.13 94.2793C98.8327 96.0162 97.5251 97.5307 96.2069 98.8227C94.8993 100.115 93.9213 101.042 93.2728 101.603L96.1431 111.627L91.9652 114.63L84.6459 93.8027C84.6247 93.8027 84.5237 93.9033 84.3429 94.1045C84.1622 94.3057 83.923 94.5705 83.6254 94.8988C83.3383 95.2166 83.1576 95.4125 83.0832 95.4866C83.0513 95.4866 82.945 95.2589 82.7643 94.8035C82.5942 94.3481 82.3603 93.7179 82.0626 92.913C81.7756 92.0975 81.4514 91.1973 81.0899 90.2124C80.7178 89.2168 80.468 88.592 80.3404 88.3378ZM90.6576 92.7542L91.9652 97.4406C92.6243 96.7734 93.4429 95.8626 94.4209 94.7082C95.399 93.5538 95.888 92.7171 95.888 92.1982C95.888 91.9969 95.8029 91.8804 95.6329 91.8487C95.1545 91.7428 94.6814 91.6898 94.2136 91.6898C92.8104 91.6898 91.625 92.0446 90.6576 92.7542Z" fill="white"/>
<path d="M107.704 83.9055L108.087 94.9783H110.319L109.666 84.5569L118.149 85.2082L119.855 120.603L113.317 120.476L110.702 101.873L108.23 101.222L108.087 118.013L100.512 118.14L99.6035 87.6865L96.8607 87.0351L96.7331 83L107.704 83.9055Z" fill="white"/>
<path d="M139.772 89.7676C142.291 91.6845 143.551 94.2422 143.551 97.4406C143.551 98.5421 143.392 99.6806 143.073 100.856C142.765 102.021 142.329 103.139 141.765 104.208C141.202 105.278 140.58 106.231 139.9 107.068C138.783 108.445 137.678 109.604 136.583 110.547C135.498 111.489 134.403 112.257 133.298 112.85C132.192 113.433 131.124 113.856 130.093 114.121C129.061 114.386 128.051 114.518 127.063 114.518C124.767 114.518 122.688 113.904 120.828 112.676C119.573 111.828 118.532 110.504 117.702 108.704C116.884 106.904 116.475 104.971 116.475 102.906C116.475 99.5906 117.532 96.731 119.648 94.3269C120.892 92.9077 122.199 91.6474 123.571 90.546C124.942 89.4445 126.361 88.5814 127.828 87.9565C129.295 87.3211 130.794 87.0033 132.325 87.0033C134.845 87.0033 137.327 87.9247 139.772 89.7676ZM136.631 93.8662C136.418 95.0524 135.987 96.0321 135.339 96.8052C134.69 97.5783 134.021 97.9649 133.33 97.9649C132.894 97.9649 132.516 97.8007 132.198 97.4724C132.027 97.303 131.884 97.0488 131.767 96.7099C131.661 96.371 131.607 96.0426 131.607 95.7249C131.607 95.0789 131.799 94.4434 132.182 93.8186C132.575 93.1831 133.197 92.6324 134.047 92.1664C133.027 92.1664 132.155 92.4047 131.432 92.8813C130.72 93.3473 130.194 93.9457 129.853 94.6764C129.513 95.4072 129.343 96.1644 129.343 96.9482C129.343 98.1767 129.705 99.0769 130.427 99.6488C131.299 100.348 132.171 100.697 133.043 100.697C134.116 100.697 135.02 100.221 135.754 99.2676C136.487 98.3144 136.854 97.1335 136.854 95.7249C136.854 95.0683 136.779 94.4487 136.631 93.8662Z" fill="white"/>
<path d="M156.818 92.6271L157.727 113.978H156.755C156.117 113.978 155.309 113.957 154.331 113.915C153.353 113.883 152.465 113.814 151.668 113.708C150.871 113.613 150.281 113.486 149.898 113.327L148.845 92.8813L138.911 93.0242L139.054 86.7651L164.52 85.0811L164.919 91.9758L156.818 92.6271Z" fill="white"/>
<path d="M182.221 89.7676C184.74 91.6845 186 94.2422 186 97.4406C186 98.5421 185.841 99.6806 185.522 100.856C185.213 102.021 184.777 103.139 184.214 104.208C183.651 105.278 183.029 106.231 182.348 107.068C181.232 108.445 180.126 109.604 179.032 110.547C177.947 111.489 176.852 112.257 175.747 112.85C174.641 113.433 173.573 113.856 172.541 114.121C171.51 114.386 170.5 114.518 169.512 114.518C167.215 114.518 165.137 113.904 163.277 112.676C162.022 111.828 160.98 110.504 160.151 108.704C159.333 106.904 158.923 104.971 158.923 102.906C158.923 99.5906 159.981 96.731 162.097 94.3269C163.34 92.9077 164.648 91.6474 166.019 90.546C167.391 89.4445 168.81 88.5814 170.277 87.9565C171.744 87.3211 173.243 87.0033 174.774 87.0033C177.293 87.0033 179.776 87.9247 182.221 89.7676ZM179.079 93.8662C178.867 95.0524 178.436 96.0321 177.788 96.8052C177.139 97.5783 176.469 97.9649 175.778 97.9649C175.343 97.9649 174.965 97.8007 174.646 97.4724C174.476 97.303 174.333 97.0488 174.216 96.7099C174.109 96.371 174.056 96.0426 174.056 95.7249C174.056 95.0789 174.248 94.4434 174.63 93.8186C175.024 93.1831 175.646 92.6324 176.496 92.1664C175.476 92.1664 174.604 92.4047 173.881 92.8813C173.169 93.3473 172.642 93.9457 172.302 94.6764C171.962 95.4072 171.792 96.1644 171.792 96.9482C171.792 98.1767 172.153 99.0769 172.876 99.6488C173.748 100.348 174.62 100.697 175.491 100.697C176.565 100.697 177.469 100.221 178.202 99.2676C178.936 98.3144 179.303 97.1335 179.303 95.7249C179.303 95.0683 179.228 94.4487 179.079 93.8662Z" fill="white"/>
</svg>
