<svg width="264" height="64" viewBox="0 0 264 64" fill="none" xmlns="http://www.w3.org/2000/svg">
<path d="M0.791504 9.31689C3.03662 8.57471 5.14258 7.88818 7.10938 7.25732C9.09473 6.62646 11.1821 6.03271 13.3716 5.47607C15.561 4.90088 17.6577 4.44629 19.6616 4.1123C21.2017 3.85254 22.7788 3.72266 24.3931 3.72266C27.0835 3.72266 28.8462 3.79688 29.6812 3.94531C30.9429 4.18652 32.1304 4.57617 33.2437 5.11426C34.3755 5.65234 35.3774 6.37598 36.2495 7.28516C37.1401 8.17578 37.8638 9.2334 38.4204 10.458C38.6431 10.959 38.7544 11.4878 38.7544 12.0444C38.7544 14.1226 37.6133 16.6831 35.3311 19.7261C33.0674 22.769 30.7852 25.4224 28.4844 27.686C26.2021 29.9497 24.4951 31.5732 23.3633 32.5566L28.373 50.1187L21.0811 55.3789L8.30615 18.8911C8.26904 18.8911 8.09277 19.0674 7.77734 19.4199C7.46191 19.7725 7.04443 20.2363 6.5249 20.8115C6.02393 21.3682 5.7085 21.7114 5.57861 21.8413C5.52295 21.8413 5.3374 21.4424 5.02197 20.6445C4.7251 19.8467 4.31689 18.7427 3.79736 17.3325C3.29639 15.9038 2.73047 14.3267 2.09961 12.6011C1.4502 10.8569 1.01416 9.76221 0.791504 9.31689ZM18.7988 17.0542L21.0811 25.2646C22.2314 24.0957 23.6602 22.5 25.3672 20.4775C27.0742 18.4551 27.9277 16.9893 27.9277 16.0801C27.9277 15.7275 27.7793 15.5234 27.4824 15.4678C26.6475 15.2822 25.8218 15.1895 25.0054 15.1895C22.5562 15.1895 20.4873 15.811 18.7988 17.0542Z" fill="white"/>
<path d="M65.3562 23.3999C66.6736 24.105 67.7405 25.0605 68.5569 26.2666C69.3919 27.4541 69.9949 28.7993 70.366 30.3022C70.7557 31.7866 70.9505 33.3359 70.9505 34.9502C70.9505 36.2861 70.8392 37.5757 70.6165 38.8188C70.4124 40.062 70.1248 41.2031 69.7537 42.2422C69.3826 43.2812 68.9466 44.1626 68.4456 44.8862C67.2767 46.6304 66.0242 48.1333 64.6883 49.395C63.3523 50.6567 61.9886 51.6772 60.597 52.4565C59.2054 53.2173 57.823 53.7739 56.45 54.1265C55.0955 54.4976 53.7503 54.6831 52.4144 54.6831C50.8372 54.6831 49.3343 54.4326 47.9056 53.9316C46.4954 53.4492 45.2894 52.8091 44.2874 52.0112C42.636 50.6382 41.3465 48.792 40.4188 46.4727C39.491 44.1348 39.0271 41.667 39.0271 39.0693C39.0271 34.5977 40.3167 30.9888 42.8958 28.2427C45.1038 25.8862 47.386 24.1143 49.7425 22.9268C52.0989 21.7207 54.511 21.1177 56.9788 21.1177C58.4261 21.1177 59.8177 21.3032 61.1536 21.6743C62.4896 22.0269 63.8904 22.6021 65.3562 23.3999ZM63.7142 28.0757C63.3987 29.4858 62.7122 30.729 61.6546 31.8052C60.6155 32.8813 59.595 33.4194 58.5931 33.4194C58.0921 33.4194 57.6468 33.2896 57.2571 33.0298C56.7005 32.5845 56.4222 31.8052 56.4222 30.6919C56.4222 29.8384 56.7005 28.9941 57.2571 28.1592C57.8323 27.3242 58.7322 26.6655 59.9568 26.1831C58.7322 26.1831 57.5447 26.415 56.3943 26.8789C55.2625 27.3428 54.2884 27.9458 53.472 28.688C52.6556 29.4116 51.9969 30.2373 51.4959 31.165C51.0135 32.0742 50.7723 32.9927 50.7723 33.9204C50.7723 35.646 51.5701 37.019 53.1658 38.0396C54.6502 38.9858 56.0604 39.459 57.3963 39.459C58.7137 39.459 59.8826 39.0229 60.9031 38.1509C61.9236 37.2603 62.7029 36.1284 63.241 34.7554C63.7791 33.3638 64.0481 31.9907 64.0481 30.6362C64.0481 29.7085 63.9368 28.855 63.7142 28.0757Z" fill="white"/>
<path d="M72.0304 7.03467L86.169 1.10645L88.2286 33.2524L99.8624 26.8789L111.942 28.688L96.1886 40.7671L111.023 51.9556L111.691 63.1162L89.815 47.3911L90.5108 61.0566L77.2628 61.3071L74.7579 12.9629L70.6666 13.8813L72.0304 7.03467Z" fill="white"/>
<path d="M137.013 38.1509L143.72 46.25C143.182 47.8086 141.902 49.2373 139.879 50.5361C137.875 51.835 135.482 52.8555 132.699 53.5977C129.934 54.3584 127.169 54.7388 124.405 54.7388C121.955 54.7388 119.766 54.4141 117.836 53.7646C115.925 53.1152 114.45 52.1318 113.411 50.8145C111.611 48.5508 110.711 45.6562 110.711 42.1309C110.711 39.3477 111.212 36.6108 112.214 33.9204C113.235 31.2114 114.311 29.3188 115.443 28.2427C116.797 26.9624 118.263 25.8955 119.84 25.042C121.436 24.1885 123.087 23.5483 124.794 23.1216C126.501 22.6948 128.255 22.4814 130.055 22.4814C132.411 22.4814 134.647 22.8618 136.762 23.6226C138.896 24.3647 140.761 25.4502 142.356 26.8789L127.077 45.1089C128.431 45.1089 129.711 44.8306 130.917 44.2739C132.142 43.6987 133.265 42.8916 134.285 41.8525C135.306 40.7949 136.215 39.561 137.013 38.1509ZM129.303 31.666C128.394 31.2021 127.466 30.9702 126.52 30.9702C125.518 30.9702 124.544 31.1743 123.598 31.5825C122.67 31.9907 122.011 32.4731 121.621 33.0298C120.471 34.5142 119.896 36.147 119.896 37.9282C119.896 38.5776 119.961 39.1992 120.091 39.793C120.221 40.3867 120.443 41.2031 120.759 42.2422L129.303 31.666Z" fill="white"/>
<path d="M181.343 56.2695L167.678 57.188L164.032 51.2598L160.831 59.4702L151.925 59.6929L141.46 10.9033L157.631 12.4897L160.609 29.1333L163.781 22.9824L168.123 30.7476L170.405 4.9751L186.131 3.83398L181.343 56.2695Z" fill="white"/>
<path d="M206.22 58.7744L193.667 59.4702L193 29.6064L188.88 30.5249L190.244 23.6782L204.383 17.75L206.22 58.7744ZM197.091 0.883789C198.408 0.883789 199.54 1.10645 200.486 1.55176C201.451 1.97852 202.24 2.50732 202.852 3.13818C203.464 3.75049 203.882 4.28857 204.104 4.75244C204.327 5.25342 204.438 5.80078 204.438 6.39453C204.438 7.30371 204.244 8.23145 203.854 9.17773C203.464 10.1055 202.991 10.9033 202.435 11.5713C201.878 12.2393 201.349 12.6289 200.848 12.7402C199.883 12.8887 199.16 12.9629 198.677 12.9629C197.453 12.9629 196.386 12.7495 195.477 12.3228C194.567 11.896 193.844 11.2744 193.306 10.458C192.768 9.6416 192.434 8.68604 192.304 7.59131C192.304 6.01416 192.684 4.53906 193.445 3.16602C194.224 1.79297 195.439 1.03223 197.091 0.883789Z" fill="white"/>
<path d="M208.83 7.03467L222.969 1.10645L225.029 33.2524L236.662 26.8789L248.742 28.688L232.989 40.7671L247.823 51.9556L248.491 63.1162L226.615 47.3911L227.311 61.0566L214.063 61.3071L211.558 12.9629L207.467 13.8813L208.83 7.03467Z" fill="white"/>
<path d="M263.209 58.7744L250.656 59.4702L249.988 29.6064L245.869 30.5249L247.233 23.6782L261.372 17.75L263.209 58.7744ZM254.08 0.883789C255.397 0.883789 256.529 1.10645 257.475 1.55176C258.44 1.97852 259.229 2.50732 259.841 3.13818C260.453 3.75049 260.871 4.28857 261.093 4.75244C261.316 5.25342 261.427 5.80078 261.427 6.39453C261.427 7.30371 261.233 8.23145 260.843 9.17773C260.453 10.1055 259.98 10.9033 259.423 11.5713C258.867 12.2393 258.338 12.6289 257.837 12.7402C256.872 12.8887 256.149 12.9629 255.666 12.9629C254.441 12.9629 253.375 12.7495 252.465 12.3228C251.556 11.896 250.833 11.2744 250.295 10.458C249.756 9.6416 249.422 8.68604 249.293 7.59131C249.293 6.01416 249.673 4.53906 250.434 3.16602C251.213 1.79297 252.428 1.03223 254.08 0.883789Z" fill="white"/>
</svg>
